<svg width="71" height="26" viewBox="0 0 71 26" fill="none" xmlns="http://www.w3.org/2000/svg">
<path d="M68.1 4.9331H46.4652C45.1594 4.75858 43.8327 5.03081 42.7054 5.70453C42.5213 5.88721 42.3786 6.10647 42.2867 6.34777C42.1951 6.58908 42.1564 6.84687 42.1731 7.1041C42.1731 8.57443 43.3791 9.09905 45.6132 9.27335L59.7664 10.3588C64.3066 10.7092 66.9314 11.3046 68.6333 12.9835C69.2524 13.6243 69.7322 14.3833 70.0433 15.214C70.3544 16.0447 70.4901 16.9294 70.4421 17.8139C70.491 18.7443 70.3463 19.6747 70.0169 20.5475C69.6874 21.4205 69.1802 22.2175 68.5268 22.8893C66.7182 24.6732 63.9151 25.4086 59.1985 25.4086H37.5271V20.473H60.0848C62.9579 20.473 64.1637 19.7035 64.1637 18.0934C64.1637 16.6593 63.3126 16.0985 60.7247 15.8899L47.6007 14.9097C43.8409 14.6281 40.4361 14.138 38.2365 12.2483C37.5173 11.6183 36.9449 10.8414 36.5592 9.97154C36.1735 9.10164 35.9836 8.1594 36.0027 7.20996C35.9762 6.296 36.1459 5.38687 36.5003 4.54223C36.8549 3.69756 37.3861 2.93645 38.0594 2.30883C39.868 0.664403 42.883 0 46.9262 0H68.1V4.9331Z" fill="#06048C"/>
<path d="M22.8428 21.0346C21.993 20.0553 20.9188 19.2905 19.7096 18.8034C18.5005 18.3161 17.1911 18.1209 15.8902 18.2338H6.4911V25.4089H0V0H22.8774C27.2402 0 29.9717 0.840433 31.7803 2.48506C33.3396 4.34535 34.1927 6.68466 34.1927 9.09963C34.1927 11.5146 33.3396 13.8539 31.7803 15.7142C30.2962 16.9834 28.4497 17.7661 26.4958 17.9542C28.1241 18.62 29.5969 19.6085 30.8233 20.8583L35.8596 25.4091H27.7369L22.8428 21.0346ZM22.239 13.1948C24.6154 13.1948 25.893 12.9153 26.6732 12.1091C27.3645 11.2622 27.6951 10.183 27.5949 9.09963C27.6958 8.02678 27.3645 6.95789 26.6732 6.12444C25.893 5.32065 24.6154 5.03895 22.239 5.03895H6.4911V13.1944L22.239 13.1948Z" fill="#06048C"/>
</svg>